<svg width="87" height="99" viewBox="0 0 87 99" fill="none" xmlns="http://www.w3.org/2000/svg">
<mask id="mask0_241_2197" style="mask-type:luminance" maskUnits="userSpaceOnUse" x="0" y="0" width="42" height="73">
<path d="M1.5 1.5H40.357V70.7816H1.5V1.5Z" fill="white" stroke="white" stroke-width="3"/>
</mask>
<g mask="url(#mask0_241_2197)">
<path d="M40.1849 17.4117L35.2174 20.2581V13.7876V11.1913L32.9681 12.4882L7.27107 27.3044L6.52031 27.7373V28.6039V58.2583V60.8558L8.77006 59.5574L34.4671 44.7277L35.2174 44.2948V43.4285V35.3623L40.1932 32.5136L40.2 47.1548L1.55136 69.4432L1.53259 24.8695L40.1794 2.59528L40.1849 17.4117Z" fill="url(#paint0_linear_241_2197)" stroke="url(#paint1_linear_241_2197)" stroke-width="3"/>
</g>
<path d="M24.4075 29.9114V38.0502L17.3478 42.1206L17.3265 33.97L24.4075 29.9114Z" fill="url(#paint2_linear_241_2197)" stroke="url(#paint3_linear_241_2197)" stroke-width="3"/>
<mask id="mask1_241_2197" style="mask-type:luminance" maskUnits="userSpaceOnUse" x="44" y="0" width="43" height="73">
<path d="M46.3779 1.5H85.3562V70.7816H46.3779V1.5Z" fill="white" stroke="white" stroke-width="3"/>
</mask>
<g mask="url(#mask1_241_2197)">
<path d="M46.6916 2.59597L85.3387 24.8844L85.3333 39.5259L80.3577 36.6784V28.6106V27.7444L79.6074 27.3114L53.9104 12.4834L51.6607 11.1852V13.7826V43.4353V44.3019L52.4114 44.7348L78.1085 59.551L80.3577 60.8479V58.2515V51.7811L85.3253 54.6274L85.3198 69.4439L46.6713 47.1697L46.6916 2.59597Z" fill="url(#paint4_linear_241_2197)" stroke="url(#paint5_linear_241_2197)" stroke-width="3"/>
</g>
<path d="M69.5484 42.1279L62.4658 38.0691L62.4883 29.9183L69.5484 33.9889V42.1279Z" fill="url(#paint6_linear_241_2197)" stroke="url(#paint7_linear_241_2197)" stroke-width="3"/>
<path d="M43.293 70.9554L50.35 75.0515L43.293 79.1191L36.2372 75.0515L43.293 70.9554Z" fill="url(#paint8_linear_241_2197)" stroke="url(#paint9_linear_241_2197)" stroke-width="3"/>
<mask id="mask2_241_2197" style="mask-type:luminance" maskUnits="userSpaceOnUse" x="1" y="50" width="85" height="49">
<path d="M2.79395 52.2331H83.5079V97.5H2.79395V52.2331Z" fill="white" stroke="white" stroke-width="3"/>
</mask>
<g mask="url(#mask2_241_2197)">
<path d="M81.9206 75.0344L43.2937 97.3289L4.6464 75.05L43.2859 52.7445L56.0277 60.0969L51.0659 62.9764L44.0419 58.9252L43.2925 58.493L42.5431 58.9251L16.8292 73.7532L14.5746 75.0533L16.8299 76.3524L42.537 91.1602L43.2861 91.5917L44.035 91.1599L69.7354 76.342L71.9891 75.0426L69.7355 73.743L64.1794 70.5391L69.1546 67.6699L81.9206 75.0344Z" fill="url(#paint10_linear_241_2197)" stroke="url(#paint11_linear_241_2197)" stroke-width="3"/>
</g>
<defs>
<linearGradient id="paint0_linear_241_2197" x1="20.8663" y1="0" x2="20.8663" y2="72.0392" gradientUnits="userSpaceOnUse">
<stop offset="0.275" stop-color="#0A2650"/>
<stop offset="0.72" stop-color="#1656B6"/>
<stop offset="0.93" stop-color="#0066FF"/>
</linearGradient>
<linearGradient id="paint1_linear_241_2197" x1="20.8663" y1="0" x2="20.8663" y2="72.0392" gradientUnits="userSpaceOnUse">
<stop/>
<stop offset="1" stop-color="#666666"/>
</linearGradient>
<linearGradient id="paint2_linear_241_2197" x1="20.8659" y1="27.3227" x2="20.8659" y2="44.713" gradientUnits="userSpaceOnUse">
<stop offset="0.275" stop-color="#0A2650"/>
<stop offset="0.72" stop-color="#1656B6"/>
<stop offset="0.93" stop-color="#0066FF"/>
</linearGradient>
<linearGradient id="paint3_linear_241_2197" x1="20.8659" y1="27.3227" x2="20.8659" y2="44.713" gradientUnits="userSpaceOnUse">
<stop/>
<stop offset="1" stop-color="#666666"/>
</linearGradient>
<linearGradient id="paint4_linear_241_2197" x1="66.005" y1="0" x2="66.005" y2="72.0392" gradientUnits="userSpaceOnUse">
<stop offset="0.275" stop-color="#0A2650"/>
<stop offset="0.72" stop-color="#1656B6"/>
<stop offset="0.93" stop-color="#0066FF"/>
</linearGradient>
<linearGradient id="paint5_linear_241_2197" x1="66.005" y1="0" x2="66.005" y2="72.0392" gradientUnits="userSpaceOnUse">
<stop/>
<stop offset="1" stop-color="#666666"/>
</linearGradient>
<linearGradient id="paint6_linear_241_2197" x1="66.0059" y1="27.3261" x2="66.0059" y2="44.7164" gradientUnits="userSpaceOnUse">
<stop offset="0.275" stop-color="#0A2650"/>
<stop offset="0.72" stop-color="#1656B6"/>
<stop offset="0.93" stop-color="#0066FF"/>
</linearGradient>
<linearGradient id="paint7_linear_241_2197" x1="66.0059" y1="27.3261" x2="66.0059" y2="44.7164" gradientUnits="userSpaceOnUse">
<stop/>
<stop offset="1" stop-color="#666666"/>
</linearGradient>
<linearGradient id="paint8_linear_241_2197" x1="43.2938" y1="69.2211" x2="43.2938" y2="80.8505" gradientUnits="userSpaceOnUse">
<stop offset="0.275" stop-color="#0A2650"/>
<stop offset="0.72" stop-color="#1656B6"/>
<stop offset="0.93" stop-color="#0066FF"/>
</linearGradient>
<linearGradient id="paint9_linear_241_2197" x1="43.2938" y1="69.2211" x2="43.2938" y2="80.8505" gradientUnits="userSpaceOnUse">
<stop/>
<stop offset="1" stop-color="#666666"/>
</linearGradient>
<linearGradient id="paint10_linear_241_2197" x1="43.2832" y1="51.0126" x2="43.2832" y2="99.0606" gradientUnits="userSpaceOnUse">
<stop offset="0.275" stop-color="#0A2650"/>
<stop offset="0.72" stop-color="#1656B6"/>
<stop offset="0.93" stop-color="#0066FF"/>
</linearGradient>
<linearGradient id="paint11_linear_241_2197" x1="43.2832" y1="51.0126" x2="43.2832" y2="99.0606" gradientUnits="userSpaceOnUse">
<stop/>
<stop offset="1" stop-color="#666666"/>
</linearGradient>
</defs>
</svg>
