<svg width="180" height="107" viewBox="0 0 180 107" fill="none" xmlns="http://www.w3.org/2000/svg">
<g filter="url(#filter0_d_281_9782)">
<mask id="path-1-outside-1_281_9782" maskUnits="userSpaceOnUse" x="7" y="22" width="164" height="77" fill="black">
<rect fill="white" x="7" y="22" width="164" height="77"/>
<path d="M33.1871 97.9943C28.3103 97.9943 24.0015 97.1302 20.261 95.402C16.5442 93.6501 13.6441 91.2472 11.5607 88.1932C9.47739 85.1155 8.44756 81.6117 8.47124 77.6818C8.44756 74.6042 9.05125 71.7633 10.2823 69.1591C11.5134 66.5312 13.1942 64.3414 15.3249 62.5895C17.4793 60.8139 19.8822 59.6894 22.5337 59.2159V58.7898C19.0536 57.8902 16.2837 55.937 14.2241 52.9304C12.1644 49.9001 11.1464 46.4555 11.1701 42.5966C11.1464 38.9034 12.0816 35.6009 13.9755 32.6889C15.8694 29.777 18.4736 27.4806 21.788 25.7997C25.1261 24.1188 28.9258 23.2784 33.1871 23.2784C37.4012 23.2784 41.1654 24.1188 44.4798 25.7997C47.7942 27.4806 50.3983 29.777 52.2923 32.6889C54.2099 35.6009 55.1805 38.9034 55.2042 42.5966C55.1805 46.4555 54.127 49.9001 52.0437 52.9304C49.984 55.937 47.2496 57.8902 43.8406 58.7898V59.2159C46.4684 59.6894 48.8358 60.8139 50.9428 62.5895C53.0498 64.3414 54.7307 66.5312 55.9854 69.1591C57.2402 71.7633 57.8794 74.6042 57.9031 77.6818C57.8794 81.6117 56.814 85.1155 54.707 88.1932C52.6237 91.2472 49.7236 93.6501 46.0067 95.402C42.3136 97.1302 38.0404 97.9943 33.1871 97.9943ZM33.1871 90.1818C36.4779 90.1818 39.3188 89.6491 41.7099 88.5838C44.101 87.5185 45.9476 86.0152 47.2496 84.0739C48.5517 82.1326 49.2146 79.8598 49.2383 77.2557C49.2146 74.5095 48.5044 72.0829 47.1076 69.9759C45.7108 67.8688 43.805 66.2116 41.3903 65.0043C38.9992 63.7969 36.2648 63.1932 33.1871 63.1932C30.0858 63.1932 27.3159 63.7969 24.8775 65.0043C22.4627 66.2116 20.5569 67.8688 19.1602 69.9759C17.7871 72.0829 17.1123 74.5095 17.136 77.2557C17.1123 79.8598 17.7397 82.1326 19.0181 84.0739C20.3202 86.0152 22.1786 87.5185 24.5934 88.5838C27.0082 89.6491 29.8728 90.1818 33.1871 90.1818ZM33.1871 55.6648C35.7913 55.6648 38.0996 55.1439 40.1119 54.1023C42.1478 53.0606 43.7459 51.6046 44.9059 49.7344C46.0659 47.8641 46.6578 45.6742 46.6815 43.1648C46.6578 40.7026 46.0778 38.5601 44.9414 36.7372C43.805 34.8906 42.2307 33.4702 40.2184 32.4759C38.2061 31.4579 35.8623 30.9489 33.1871 30.9489C30.4646 30.9489 28.0853 31.4579 26.0494 32.4759C24.0134 33.4702 22.439 34.8906 21.3263 36.7372C20.2137 38.5601 19.6692 40.7026 19.6928 43.1648C19.6692 45.6742 20.2255 47.8641 21.3619 49.7344C22.5219 51.6046 24.1199 53.0606 26.1559 54.1023C28.1919 55.1439 30.5356 55.6648 33.1871 55.6648ZM79.6662 23.2784C82.6491 23.3021 85.6321 23.8703 88.6151 24.983C91.598 26.0956 94.3206 27.9422 96.7827 30.5227C99.2448 33.0795 101.222 36.5715 102.713 40.9986C104.205 45.4257 104.95 50.9773 104.95 57.6534C104.95 64.1165 104.335 69.8575 103.104 74.8764C101.896 79.8717 100.144 84.0857 97.848 87.5185C95.5753 90.9512 92.8054 93.5554 89.5384 95.331C86.295 97.1065 82.6255 97.9943 78.5298 97.9943C74.4579 97.9943 70.8239 97.1894 67.6278 95.5795C64.4555 93.946 61.8513 91.6851 59.8153 88.7969C57.803 85.8849 56.5128 82.5114 55.9446 78.6761H64.6094C65.3906 82.0142 66.9413 84.7723 69.2614 86.9503C71.6051 89.1046 74.6946 90.1818 78.5298 90.1818C84.1406 90.1818 88.5677 87.7315 91.8111 82.831C95.0781 77.9304 96.7116 71.0057 96.7116 62.0568H96.1435C94.8177 64.0455 93.2434 65.7618 91.4205 67.206C89.5975 68.6501 87.5734 69.7628 85.348 70.544C83.1226 71.3253 80.7552 71.7159 78.2457 71.7159C74.0791 71.7159 70.2557 70.6861 66.7756 68.6264C63.3191 66.5431 60.5492 63.6903 58.4659 60.0682C56.4062 56.4223 55.3764 52.2557 55.3764 47.5682C55.3764 43.1174 56.3707 39.0455 58.3594 35.3523C60.3717 31.6354 63.1889 28.6761 66.8111 26.4744C70.4569 24.2727 74.742 23.2074 79.6662 23.2784ZM79.6662 31.0909C76.6832 31.0909 73.9962 31.8366 71.6051 33.3281C69.2377 34.7959 67.3556 36.7846 65.9588 39.294C64.5857 41.7798 63.8991 44.5379 63.8991 47.5682C63.8991 50.5985 64.562 53.3565 65.8878 55.8423C67.2372 58.3044 69.072 60.2694 71.392 61.7372C73.7358 63.1813 76.3991 63.9034 79.3821 63.9034C81.6312 63.9034 83.7263 63.4654 85.6676 62.5895C87.6089 61.6899 89.3016 60.4706 90.7457 58.9318C92.2135 57.3693 93.3617 55.6056 94.1903 53.6406C95.0189 51.652 95.4332 49.5805 95.4332 47.4261C95.4332 44.5852 94.7467 41.9219 93.3736 39.4361C92.0241 36.9503 90.1539 34.938 87.7628 33.3991C85.3954 31.8603 82.6965 31.0909 79.6662 31.0909ZM140.989 83.3636V79.5284C140.989 76.8769 141.534 74.4503 142.623 72.2486C143.735 70.0232 145.345 68.2476 147.452 66.9219C149.583 65.5724 152.163 64.8977 155.194 64.8977C158.271 64.8977 160.852 65.5724 162.935 66.9219C165.018 68.2476 166.593 70.0232 167.658 72.2486C168.723 74.4503 169.256 76.8769 169.256 79.5284V83.3636C169.256 86.0152 168.712 88.4536 167.623 90.679C166.557 92.8807 164.971 94.6562 162.864 96.0057C160.781 97.3314 158.224 97.9943 155.194 97.9943C152.116 97.9943 149.524 97.3314 147.417 96.0057C145.31 94.6562 143.712 92.8807 142.623 90.679C141.534 88.4536 140.989 86.0152 140.989 83.3636ZM148.233 79.5284V83.3636C148.233 85.5653 148.754 87.5421 149.796 89.294C150.837 91.0223 152.637 91.8864 155.194 91.8864C157.679 91.8864 159.431 91.0223 160.449 89.294C161.491 87.5421 162.012 85.5653 162.012 83.3636V79.5284C162.012 77.3267 161.515 75.3617 160.52 73.6335C159.526 71.8816 157.75 71.0057 155.194 71.0057C152.708 71.0057 150.92 71.8816 149.831 73.6335C148.766 75.3617 148.233 77.3267 148.233 79.5284ZM104.767 41.7443V37.9091C104.767 35.2576 105.312 32.831 106.401 30.6293C107.514 28.4039 109.123 26.6283 111.23 25.3026C113.361 23.9531 115.942 23.2784 118.972 23.2784C122.05 23.2784 124.63 23.9531 126.713 25.3026C128.797 26.6283 130.371 28.4039 131.436 30.6293C132.502 32.831 133.034 35.2576 133.034 37.9091V41.7443C133.034 44.3958 132.49 46.8343 131.401 49.0597C130.336 51.2614 128.749 53.0369 126.642 54.3864C124.559 55.7121 122.002 56.375 118.972 56.375C115.894 56.375 113.302 55.7121 111.195 54.3864C109.088 53.0369 107.49 51.2614 106.401 49.0597C105.312 46.8343 104.767 44.3958 104.767 41.7443ZM112.012 37.9091V41.7443C112.012 43.946 112.533 45.9228 113.574 47.6747C114.616 49.4029 116.415 50.267 118.972 50.267C121.458 50.267 123.21 49.4029 124.228 47.6747C125.269 45.9228 125.79 43.946 125.79 41.7443V37.9091C125.79 35.7074 125.293 33.7424 124.299 32.0142C123.304 30.2623 121.529 29.3864 118.972 29.3864C116.486 29.3864 114.699 30.2623 113.61 32.0142C112.544 33.7424 112.012 35.7074 112.012 37.9091ZM107.466 97L157.466 24.2727H165.563L115.563 97H107.466Z"/>
</mask>
<path d="M33.1871 97.9943C28.3103 97.9943 24.0015 97.1302 20.261 95.402C16.5442 93.6501 13.6441 91.2472 11.5607 88.1932C9.47739 85.1155 8.44756 81.6117 8.47124 77.6818C8.44756 74.6042 9.05125 71.7633 10.2823 69.1591C11.5134 66.5312 13.1942 64.3414 15.3249 62.5895C17.4793 60.8139 19.8822 59.6894 22.5337 59.2159V58.7898C19.0536 57.8902 16.2837 55.937 14.2241 52.9304C12.1644 49.9001 11.1464 46.4555 11.1701 42.5966C11.1464 38.9034 12.0816 35.6009 13.9755 32.6889C15.8694 29.777 18.4736 27.4806 21.788 25.7997C25.1261 24.1188 28.9258 23.2784 33.1871 23.2784C37.4012 23.2784 41.1654 24.1188 44.4798 25.7997C47.7942 27.4806 50.3983 29.777 52.2923 32.6889C54.2099 35.6009 55.1805 38.9034 55.2042 42.5966C55.1805 46.4555 54.127 49.9001 52.0437 52.9304C49.984 55.937 47.2496 57.8902 43.8406 58.7898V59.2159C46.4684 59.6894 48.8358 60.8139 50.9428 62.5895C53.0498 64.3414 54.7307 66.5312 55.9854 69.1591C57.2402 71.7633 57.8794 74.6042 57.9031 77.6818C57.8794 81.6117 56.814 85.1155 54.707 88.1932C52.6237 91.2472 49.7236 93.6501 46.0067 95.402C42.3136 97.1302 38.0404 97.9943 33.1871 97.9943ZM33.1871 90.1818C36.4779 90.1818 39.3188 89.6491 41.7099 88.5838C44.101 87.5185 45.9476 86.0152 47.2496 84.0739C48.5517 82.1326 49.2146 79.8598 49.2383 77.2557C49.2146 74.5095 48.5044 72.0829 47.1076 69.9759C45.7108 67.8688 43.805 66.2116 41.3903 65.0043C38.9992 63.7969 36.2648 63.1932 33.1871 63.1932C30.0858 63.1932 27.3159 63.7969 24.8775 65.0043C22.4627 66.2116 20.5569 67.8688 19.1602 69.9759C17.7871 72.0829 17.1123 74.5095 17.136 77.2557C17.1123 79.8598 17.7397 82.1326 19.0181 84.0739C20.3202 86.0152 22.1786 87.5185 24.5934 88.5838C27.0082 89.6491 29.8728 90.1818 33.1871 90.1818ZM33.1871 55.6648C35.7913 55.6648 38.0996 55.1439 40.1119 54.1023C42.1478 53.0606 43.7459 51.6046 44.9059 49.7344C46.0659 47.8641 46.6578 45.6742 46.6815 43.1648C46.6578 40.7026 46.0778 38.5601 44.9414 36.7372C43.805 34.8906 42.2307 33.4702 40.2184 32.4759C38.2061 31.4579 35.8623 30.9489 33.1871 30.9489C30.4646 30.9489 28.0853 31.4579 26.0494 32.4759C24.0134 33.4702 22.439 34.8906 21.3263 36.7372C20.2137 38.5601 19.6692 40.7026 19.6928 43.1648C19.6692 45.6742 20.2255 47.8641 21.3619 49.7344C22.5219 51.6046 24.1199 53.0606 26.1559 54.1023C28.1919 55.1439 30.5356 55.6648 33.1871 55.6648ZM79.6662 23.2784C82.6491 23.3021 85.6321 23.8703 88.6151 24.983C91.598 26.0956 94.3206 27.9422 96.7827 30.5227C99.2448 33.0795 101.222 36.5715 102.713 40.9986C104.205 45.4257 104.95 50.9773 104.95 57.6534C104.95 64.1165 104.335 69.8575 103.104 74.8764C101.896 79.8717 100.144 84.0857 97.848 87.5185C95.5753 90.9512 92.8054 93.5554 89.5384 95.331C86.295 97.1065 82.6255 97.9943 78.5298 97.9943C74.4579 97.9943 70.8239 97.1894 67.6278 95.5795C64.4555 93.946 61.8513 91.6851 59.8153 88.7969C57.803 85.8849 56.5128 82.5114 55.9446 78.6761H64.6094C65.3906 82.0142 66.9413 84.7723 69.2614 86.9503C71.6051 89.1046 74.6946 90.1818 78.5298 90.1818C84.1406 90.1818 88.5677 87.7315 91.8111 82.831C95.0781 77.9304 96.7116 71.0057 96.7116 62.0568H96.1435C94.8177 64.0455 93.2434 65.7618 91.4205 67.206C89.5975 68.6501 87.5734 69.7628 85.348 70.544C83.1226 71.3253 80.7552 71.7159 78.2457 71.7159C74.0791 71.7159 70.2557 70.6861 66.7756 68.6264C63.3191 66.5431 60.5492 63.6903 58.4659 60.0682C56.4062 56.4223 55.3764 52.2557 55.3764 47.5682C55.3764 43.1174 56.3707 39.0455 58.3594 35.3523C60.3717 31.6354 63.1889 28.6761 66.8111 26.4744C70.4569 24.2727 74.742 23.2074 79.6662 23.2784ZM79.6662 31.0909C76.6832 31.0909 73.9962 31.8366 71.6051 33.3281C69.2377 34.7959 67.3556 36.7846 65.9588 39.294C64.5857 41.7798 63.8991 44.5379 63.8991 47.5682C63.8991 50.5985 64.562 53.3565 65.8878 55.8423C67.2372 58.3044 69.072 60.2694 71.392 61.7372C73.7358 63.1813 76.3991 63.9034 79.3821 63.9034C81.6312 63.9034 83.7263 63.4654 85.6676 62.5895C87.6089 61.6899 89.3016 60.4706 90.7457 58.9318C92.2135 57.3693 93.3617 55.6056 94.1903 53.6406C95.0189 51.652 95.4332 49.5805 95.4332 47.4261C95.4332 44.5852 94.7467 41.9219 93.3736 39.4361C92.0241 36.9503 90.1539 34.938 87.7628 33.3991C85.3954 31.8603 82.6965 31.0909 79.6662 31.0909ZM140.989 83.3636V79.5284C140.989 76.8769 141.534 74.4503 142.623 72.2486C143.735 70.0232 145.345 68.2476 147.452 66.9219C149.583 65.5724 152.163 64.8977 155.194 64.8977C158.271 64.8977 160.852 65.5724 162.935 66.9219C165.018 68.2476 166.593 70.0232 167.658 72.2486C168.723 74.4503 169.256 76.8769 169.256 79.5284V83.3636C169.256 86.0152 168.712 88.4536 167.623 90.679C166.557 92.8807 164.971 94.6562 162.864 96.0057C160.781 97.3314 158.224 97.9943 155.194 97.9943C152.116 97.9943 149.524 97.3314 147.417 96.0057C145.31 94.6562 143.712 92.8807 142.623 90.679C141.534 88.4536 140.989 86.0152 140.989 83.3636ZM148.233 79.5284V83.3636C148.233 85.5653 148.754 87.5421 149.796 89.294C150.837 91.0223 152.637 91.8864 155.194 91.8864C157.679 91.8864 159.431 91.0223 160.449 89.294C161.491 87.5421 162.012 85.5653 162.012 83.3636V79.5284C162.012 77.3267 161.515 75.3617 160.52 73.6335C159.526 71.8816 157.75 71.0057 155.194 71.0057C152.708 71.0057 150.92 71.8816 149.831 73.6335C148.766 75.3617 148.233 77.3267 148.233 79.5284ZM104.767 41.7443V37.9091C104.767 35.2576 105.312 32.831 106.401 30.6293C107.514 28.4039 109.123 26.6283 111.23 25.3026C113.361 23.9531 115.942 23.2784 118.972 23.2784C122.05 23.2784 124.63 23.9531 126.713 25.3026C128.797 26.6283 130.371 28.4039 131.436 30.6293C132.502 32.831 133.034 35.2576 133.034 37.9091V41.7443C133.034 44.3958 132.49 46.8343 131.401 49.0597C130.336 51.2614 128.749 53.0369 126.642 54.3864C124.559 55.7121 122.002 56.375 118.972 56.375C115.894 56.375 113.302 55.7121 111.195 54.3864C109.088 53.0369 107.49 51.2614 106.401 49.0597C105.312 46.8343 104.767 44.3958 104.767 41.7443ZM112.012 37.9091V41.7443C112.012 43.946 112.533 45.9228 113.574 47.6747C114.616 49.4029 116.415 50.267 118.972 50.267C121.458 50.267 123.21 49.4029 124.228 47.6747C125.269 45.9228 125.79 43.946 125.79 41.7443V37.9091C125.79 35.7074 125.293 33.7424 124.299 32.0142C123.304 30.2623 121.529 29.3864 118.972 29.3864C116.486 29.3864 114.699 30.2623 113.61 32.0142C112.544 33.7424 112.012 35.7074 112.012 37.9091ZM107.466 97L157.466 24.2727H165.563L115.563 97H107.466Z" fill="#8FFF00"/>
<path d="M20.261 95.402L19.8346 96.3066L19.8416 96.3098L20.261 95.402ZM11.5607 88.1932L10.7326 88.7538L10.7346 88.7567L11.5607 88.1932ZM8.47124 77.6818L9.47131 77.6878L9.47121 77.6741L8.47124 77.6818ZM10.2823 69.1591L11.1864 69.5865L11.1879 69.5833L10.2823 69.1591ZM15.3249 62.5895L15.96 63.3619L15.9609 63.3612L15.3249 62.5895ZM22.5337 59.2159L22.7095 60.2003L23.5337 60.0532V59.2159H22.5337ZM22.5337 58.7898H23.5337V58.0154L22.784 57.8216L22.5337 58.7898ZM14.2241 52.9304L13.397 53.4925L13.3991 53.4955L14.2241 52.9304ZM11.1701 42.5966L12.1702 42.6027L12.1701 42.5902L11.1701 42.5966ZM13.9755 32.6889L14.8138 33.2341L13.9755 32.6889ZM21.788 25.7997L21.3383 24.9066L21.3357 24.9078L21.788 25.7997ZM52.2923 32.6889L51.454 33.2342L51.4571 33.2389L52.2923 32.6889ZM55.2042 42.5966L56.2043 42.6027L56.2042 42.5902L55.2042 42.5966ZM52.0437 52.9304L51.2196 52.3639L51.2187 52.3652L52.0437 52.9304ZM43.8406 58.7898L43.5854 57.8229L42.8406 58.0194V58.7898H43.8406ZM43.8406 59.2159H42.8406V60.0518L43.6632 60.2001L43.8406 59.2159ZM50.9428 62.5895L50.2984 63.3542L50.3035 63.3584L50.9428 62.5895ZM55.9854 69.1591L55.083 69.59L55.0846 69.5932L55.9854 69.1591ZM57.9031 77.6818L58.9031 77.6878L58.903 77.6741L57.9031 77.6818ZM54.707 88.1932L53.8819 87.6283L53.8809 87.6296L54.707 88.1932ZM46.0067 95.402L46.4306 96.3077L46.4331 96.3065L46.0067 95.402ZM41.7099 88.5838L41.3029 87.6704L41.7099 88.5838ZM47.2496 84.0739L46.4192 83.5168L47.2496 84.0739ZM49.2383 77.2557L50.2382 77.2648L50.2383 77.2559L50.2382 77.2471L49.2383 77.2557ZM47.1076 69.9759L46.2741 70.5284L47.1076 69.9759ZM41.3903 65.0043L40.9395 65.8969L40.9431 65.8987L41.3903 65.0043ZM24.8775 65.0043L24.4338 64.1081L24.4303 64.1098L24.8775 65.0043ZM19.1602 69.9759L18.3266 69.4233L18.3224 69.4299L19.1602 69.9759ZM17.136 77.2557L18.136 77.2648L18.136 77.2559L18.136 77.2471L17.136 77.2557ZM19.0181 84.0739L18.1829 84.6239L18.1876 84.6309L19.0181 84.0739ZM24.5934 88.5838L24.997 87.6689L24.5934 88.5838ZM40.1119 54.1023L39.6564 53.212L39.6522 53.2142L40.1119 54.1023ZM44.9059 49.7344L45.7557 50.2615L44.9059 49.7344ZM46.6815 43.1648L47.6814 43.1742L47.6815 43.1647L47.6814 43.1552L46.6815 43.1648ZM44.9414 36.7372L44.0897 37.2613L44.0928 37.2662L44.9414 36.7372ZM40.2184 32.4758L39.767 33.3682L39.7754 33.3724L40.2184 32.4758ZM26.0494 32.4758L26.4882 33.3745L26.4966 33.3703L26.0494 32.4758ZM21.3263 36.7372L22.1799 37.2582L22.1829 37.2533L21.3263 36.7372ZM19.6928 43.1648L20.6928 43.1742L20.6929 43.1647L20.6928 43.1552L19.6928 43.1648ZM21.3619 49.7344L20.5072 50.2537L20.5121 50.2615L21.3619 49.7344ZM33.1871 96.9943C28.4288 96.9943 24.2675 96.1515 20.6804 94.4942L19.8416 96.3098C23.7355 98.1089 28.1917 98.9943 33.1871 98.9943V96.9943ZM20.6874 94.4974C17.1133 92.8129 14.3588 90.5204 12.3868 87.6296L10.7346 88.7567C12.9293 91.9739 15.975 94.4873 19.8347 96.3065L20.6874 94.4974ZM12.3888 87.6326C10.4253 84.732 9.44869 81.4281 9.47122 77.6878L7.47125 77.6758C7.44644 81.7953 8.52943 85.499 10.7326 88.7537L12.3888 87.6326ZM9.47121 77.6741C9.44861 74.7363 10.024 72.0455 11.1864 69.5865L9.37824 68.7317C8.07856 71.481 7.44652 74.472 7.47127 77.6895L9.47121 77.6741ZM11.1879 69.5833C12.3592 67.083 13.9503 65.0144 15.96 63.3619L14.6898 61.8171C12.4382 63.6684 10.6676 65.9795 9.37676 68.7349L11.1879 69.5833ZM15.9609 63.3612C17.9877 61.6907 20.2335 60.6425 22.7095 60.2003L22.3579 58.2315C19.531 58.7363 16.9708 59.9371 14.6889 61.8178L15.9609 63.3612ZM23.5337 59.2159V58.7898H21.5337V59.2159H23.5337ZM22.784 57.8216C19.5414 56.9834 16.9742 55.1756 15.0491 52.3652L13.3991 53.4955C15.5932 56.6985 18.5658 58.7969 22.2835 59.7579L22.784 57.8216ZM15.0511 52.3683C13.1116 49.5147 12.1476 46.2705 12.1701 42.6027L10.1701 42.5905C10.1453 46.6405 11.2173 50.2855 13.397 53.4925L15.0511 52.3683ZM12.1701 42.5902C12.1476 39.0797 13.0334 35.9714 14.8138 33.2341L13.1372 32.1437C11.1297 35.2303 10.1453 38.7271 10.1701 42.603L12.1701 42.5902ZM14.8138 33.2341C16.6051 30.48 19.0715 28.2986 22.2403 26.6916L21.3357 24.9078C17.8757 26.6625 15.1338 29.074 13.1372 32.1437L14.8138 33.2341ZM22.2377 26.6929C25.4179 25.0915 29.06 24.2784 33.1871 24.2784V22.2784C28.7916 22.2784 24.8343 23.1462 21.3383 24.9066L22.2377 26.6929ZM33.1871 24.2784C37.2652 24.2784 40.871 25.0908 44.0275 26.6916L44.9321 24.9078C41.4597 23.1469 37.5371 22.2784 33.1871 22.2784V24.2784ZM44.0275 26.6916C47.1963 28.2986 49.6627 30.48 51.454 33.2341L53.1305 32.1437C51.134 29.074 48.392 26.6625 44.9321 24.9078L44.0275 26.6916ZM51.4571 33.2389C53.262 35.9796 54.1817 39.0911 54.2042 42.603L56.2042 42.5902C56.1793 38.7157 55.1578 35.2221 53.1274 32.1389L51.4571 33.2389ZM54.2042 42.5905C54.1817 46.2596 53.1838 49.5069 51.2196 52.3639L52.8677 53.4969C55.0703 50.2932 56.1793 46.6514 56.2042 42.6027L54.2042 42.5905ZM51.2187 52.3652C49.2896 55.1812 46.7541 56.9867 43.5854 57.8229L44.0957 59.7567C47.7452 58.7936 50.6784 56.6928 52.8687 53.4955L51.2187 52.3652ZM42.8406 58.7898V59.2159H44.8406V58.7898H42.8406ZM43.6632 60.2001C46.1132 60.6415 48.3208 61.6876 50.2984 63.3542L51.5872 61.8248C49.3509 59.9402 46.8236 58.7373 44.0179 58.2318L43.6632 60.2001ZM50.3035 63.3584C52.2925 65.0122 53.8866 67.0842 55.083 69.59L56.8879 68.7282C55.5749 65.9783 53.8071 63.6705 51.5822 61.8206L50.3035 63.3584ZM55.0846 69.5932C56.2711 72.0557 56.8805 74.7498 56.9031 77.6895L58.903 77.6741C58.8783 74.4585 58.2093 71.4708 56.8863 68.725L55.0846 69.5932ZM56.9031 77.6758C56.8805 81.4175 55.8699 84.7244 53.8819 87.6283L55.5322 88.7581C57.7582 85.5067 58.8782 81.806 58.903 77.6878L56.9031 77.6758ZM53.8809 87.6296C51.909 90.5204 49.1544 92.8129 45.5804 94.4974L46.4331 96.3065C50.2928 94.4873 53.3384 91.9739 55.5331 88.7567L53.8809 87.6296ZM45.5829 94.4963C42.0453 96.1517 37.9214 96.9943 33.1871 96.9943V98.9943C38.1593 98.9943 42.5819 98.1087 46.4306 96.3077L45.5829 94.4963ZM33.1871 91.1818C36.5832 91.1818 39.5692 90.6323 42.1168 89.4972L41.3029 87.6704C39.0683 88.666 36.3725 89.1818 33.1871 89.1818V91.1818ZM42.1168 89.4972C44.6586 88.3648 46.661 86.7467 48.0801 84.6309L46.4192 83.5168C45.2341 85.2836 43.5433 86.6722 41.3029 87.6704L42.1168 89.4972ZM48.0801 84.6309C49.5032 82.5093 50.213 80.0411 50.2382 77.2648L48.2383 77.2466C48.2162 79.6786 47.6003 81.7559 46.4192 83.5168L48.0801 84.6309ZM50.2382 77.2471C50.2131 74.3247 49.4541 71.7056 47.9411 69.4233L46.2741 70.5284C47.5547 72.4601 48.2162 74.6943 48.2383 77.2643L50.2382 77.2471ZM47.9411 69.4233C46.4411 67.1606 44.3977 65.3899 41.8375 64.1098L40.9431 65.8987C43.2124 67.0334 44.9806 68.5771 46.2741 70.5284L47.9411 69.4233ZM41.841 64.1116C39.2906 62.8238 36.398 62.1932 33.1871 62.1932V64.1932C36.1316 64.1932 38.7077 64.77 40.9395 65.8969L41.841 64.1116ZM33.1871 62.1932C29.9535 62.1932 27.0283 62.8234 24.4338 64.1081L25.3212 65.9004C27.6036 64.7703 30.2181 64.1932 33.1871 64.1932V62.1932ZM24.4303 64.1098C21.8701 65.3899 19.8267 67.1606 18.3267 69.4233L19.9936 70.5284C21.2872 68.5771 23.0554 67.0334 25.3247 65.8987L24.4303 64.1098ZM18.3224 69.4299C16.8319 71.7169 16.1108 74.3402 16.136 77.2643L18.136 77.2471C18.1138 74.6788 18.7422 72.4488 19.998 70.5218L18.3224 69.4299ZM16.1361 77.2466C16.1108 80.0246 16.7824 82.4971 18.1829 84.6239L19.8533 83.5239C18.697 81.768 18.1139 79.6951 18.136 77.2648L16.1361 77.2466ZM18.1876 84.6309C19.6084 86.7492 21.6247 88.3671 24.1898 89.4987L24.997 87.6689C22.7326 86.6699 21.032 85.2811 19.8486 83.5168L18.1876 84.6309ZM24.1898 89.4987C26.7598 90.6326 29.7682 91.1818 33.1871 91.1818V89.1818C29.9773 89.1818 27.2565 88.6657 24.997 87.6689L24.1898 89.4987ZM33.1871 56.6648C35.9273 56.6648 38.3973 56.1158 40.5716 54.9903L39.6522 53.2142C37.8018 54.172 35.6553 54.6648 33.1871 54.6648V56.6648ZM40.5673 54.9925C42.7587 53.8713 44.4959 52.2926 45.7557 50.2615L44.0561 49.2073C42.9959 50.9166 41.537 52.2499 39.6564 53.212L40.5673 54.9925ZM45.7557 50.2615C47.0252 48.2148 47.6563 45.8405 47.6814 43.1742L45.6815 43.1553C45.6593 45.508 45.1067 47.5134 44.0561 49.2073L45.7557 50.2615ZM47.6814 43.1552C47.6562 40.5367 47.0371 38.2088 45.79 36.2082L44.0928 37.2662C45.1184 38.9115 45.6593 40.8686 45.6815 43.1744L47.6814 43.1552ZM45.7931 36.2131C44.5546 34.2006 42.836 32.6538 40.6614 31.5793L39.7754 33.3724C41.6254 34.2865 43.0555 35.5806 44.0897 37.2613L45.7931 36.2131ZM40.6698 31.5835C38.4938 30.4827 35.9901 29.9489 33.1871 29.9489V31.9489C35.7345 31.9489 37.9184 32.433 39.767 33.3682L40.6698 31.5835ZM33.1871 29.9489C30.3395 29.9489 27.8017 30.4817 25.6021 31.5814L26.4966 33.3703C28.369 32.434 30.5897 31.9489 33.1871 31.9489V29.9489ZM25.6105 31.5773C23.4106 32.6516 21.6872 34.2008 20.4698 36.2211L22.1829 37.2533C23.1909 35.5804 24.6161 34.2887 26.4882 33.3744L25.6105 31.5773ZM20.4728 36.2162C19.2485 38.222 18.6677 40.5544 18.6929 43.1744L20.6928 43.1552C20.6706 40.8509 21.1789 38.8982 22.1799 37.2582L20.4728 36.2162ZM18.6929 43.1553C18.6677 45.8232 19.2606 48.2018 20.5072 50.2536L22.2165 49.2151C21.1904 47.5264 20.6706 45.5253 20.6928 43.1742L18.6929 43.1553ZM20.5121 50.2615C21.7719 52.2926 23.509 53.8713 25.7004 54.9925L26.6114 53.212C24.7308 52.2499 23.2719 50.9166 22.2117 49.2073L20.5121 50.2615ZM25.7004 54.9925C27.8983 56.117 30.4025 56.6648 33.1871 56.6648V54.6648C30.6687 54.6648 28.4855 54.1709 26.6114 53.212L25.7004 54.9925ZM79.6662 23.2784L79.6518 24.2783L79.6583 24.2784L79.6662 23.2784ZM88.6151 24.983L88.9646 24.046L88.6151 24.983ZM96.7827 30.5227L96.0592 31.2131L96.0624 31.2164L96.7827 30.5227ZM102.713 40.9986L101.765 41.3178L102.713 40.9986ZM103.104 74.8764L102.132 74.6382L102.132 74.6415L103.104 74.8764ZM97.848 87.5185L97.0168 86.9624L97.0142 86.9664L97.848 87.5185ZM89.5384 95.331L89.0608 94.4523L89.0582 94.4538L89.5384 95.331ZM67.6278 95.5795L67.17 96.4686L67.178 96.4726L67.6278 95.5795ZM59.8153 88.7969L58.9926 89.3654L58.998 89.373L59.8153 88.7969ZM55.9446 78.6761V77.6761H54.7855L54.9554 78.8227L55.9446 78.6761ZM64.6094 78.6761L65.5831 78.4482L65.4024 77.6761H64.6094V78.6761ZM69.2614 86.9503L68.5769 87.6794L68.5846 87.6865L69.2614 86.9503ZM91.8111 82.831L90.979 82.2763L90.9772 82.2791L91.8111 82.831ZM96.7116 62.0568H97.7116V61.0568H96.7116V62.0568ZM96.1435 62.0568V61.0568H95.6083L95.3114 61.5021L96.1435 62.0568ZM66.7756 68.6264L66.2593 69.4829L66.2663 69.487L66.7756 68.6264ZM58.4659 60.0682L57.5952 60.5601L57.5991 60.5668L58.4659 60.0682ZM58.3594 35.3523L57.48 34.8762L57.4789 34.8782L58.3594 35.3523ZM66.8111 26.4744L66.2941 25.6184L66.2917 25.6199L66.8111 26.4744ZM71.6051 33.3281L72.1321 34.178L72.1344 34.1766L71.6051 33.3281ZM65.9588 39.294L65.085 38.8077L65.0835 38.8105L65.9588 39.294ZM65.8878 55.8423L65.0054 56.3129L65.0109 56.323L65.8878 55.8423ZM71.392 61.7372L70.8574 62.5824L70.8675 62.5886L71.392 61.7372ZM85.6676 62.5895L86.0789 63.501L86.0881 63.4968L85.6676 62.5895ZM90.7457 58.9318L90.0169 58.2471L90.0166 58.2475L90.7457 58.9318ZM94.1903 53.6406L95.1118 54.0292L95.1134 54.0252L94.1903 53.6406ZM93.3736 39.4361L92.4947 39.9132L92.4982 39.9196L93.3736 39.4361ZM87.7628 33.3991L87.2178 34.2376L87.2216 34.2401L87.7628 33.3991ZM79.6583 24.2784C82.5169 24.3011 85.3845 24.8452 88.2656 25.9199L88.9646 24.046C85.8797 22.8953 82.7814 22.3031 79.6741 22.2784L79.6583 24.2784ZM88.2656 25.9199C91.0906 26.9737 93.6888 28.7287 96.0592 31.213L97.5062 29.8324C94.9523 27.1558 92.1055 25.2176 88.9646 24.046L88.2656 25.9199ZM96.0624 31.2164C98.3949 33.6386 100.307 36.9885 101.765 41.3178L103.661 40.6793C102.136 36.1545 100.095 32.5204 97.503 29.8291L96.0624 31.2164ZM101.765 41.3178C103.211 45.6083 103.95 51.0433 103.95 57.6534H105.95C105.95 50.9113 105.198 45.2431 103.661 40.6793L101.765 41.3178ZM103.95 57.6534C103.95 64.0553 103.34 69.7138 102.132 74.6382L104.075 75.1146C105.329 70.0012 105.95 64.1777 105.95 57.6534H103.95ZM102.132 74.6415C100.945 79.5492 99.234 83.6482 97.0168 86.9624L98.6792 88.0745C101.055 84.5232 102.847 80.1942 104.076 75.1114L102.132 74.6415ZM97.0142 86.9664C94.8219 90.2777 92.1693 92.763 89.0608 94.4523L90.0159 96.2096C93.4415 94.3478 96.3287 91.6247 98.6818 88.0705L97.0142 86.9664ZM89.0582 94.4538C85.9774 96.1404 82.4761 96.9943 78.5298 96.9943V98.9943C82.7749 98.9943 86.6126 98.0727 90.0185 96.2081L89.0582 94.4538ZM78.5298 96.9943C74.5924 96.9943 71.116 96.2169 68.0777 94.6864L67.178 96.4726C70.5317 98.1619 74.3233 98.9943 78.5298 98.9943V96.9943ZM68.0856 94.6905C65.0551 93.13 62.5748 90.9759 60.6327 88.2207L58.998 89.373C61.1278 92.3944 63.8558 94.762 67.17 96.4686L68.0856 94.6905ZM60.638 88.2284C58.7209 85.4541 57.4817 82.2279 56.9338 78.5296L54.9554 78.8227C55.5439 82.7948 56.8852 86.3158 58.9927 89.3654L60.638 88.2284ZM55.9446 79.6761H64.6094V77.6761H55.9446V79.6761ZM63.6357 78.904C64.4582 82.4185 66.1019 85.3559 68.5769 87.6794L69.9458 86.2212C67.7806 84.1886 66.323 81.6099 65.5831 78.4482L63.6357 78.904ZM68.5846 87.6865C71.1493 90.0439 74.4981 91.1818 78.5298 91.1818V89.1818C74.8911 89.1818 72.061 88.1654 69.9381 86.2141L68.5846 87.6865ZM78.5298 91.1818C84.4948 91.1818 89.2269 88.5474 92.645 83.3829L90.9772 82.2791C87.9085 86.9157 83.7865 89.1818 78.5298 89.1818V91.1818ZM92.6431 83.3857C96.0629 78.2561 97.7116 71.1074 97.7116 62.0568H95.7116C95.7116 70.904 94.0934 77.6047 90.979 82.2763L92.6431 83.3857ZM96.7116 61.0568H96.1435V63.0568H96.7116V61.0568ZM95.3114 61.5021C94.042 63.4062 92.5382 65.0447 90.7995 66.4221L92.0414 67.9898C93.9485 66.479 95.5934 64.6847 96.9755 62.6115L95.3114 61.5021ZM90.7995 66.4221C89.0649 67.7963 87.1389 68.8555 85.0168 69.6005L85.6793 71.4876C88.0079 70.6701 90.1302 69.5039 92.0414 67.9898L90.7995 66.4221ZM85.0168 69.6005C82.9045 70.342 80.6497 70.7159 78.2457 70.7159V72.7159C80.8608 72.7159 83.3408 72.3085 85.6793 71.4876L85.0168 69.6005ZM78.2457 70.7159C74.2526 70.7159 70.606 69.7314 67.2849 67.7658L66.2663 69.487C69.9054 71.6408 73.9056 72.7159 78.2457 72.7159V70.7159ZM67.2918 67.77C63.986 65.7774 61.3346 63.0501 59.3328 59.5696L57.5991 60.5668C59.7639 64.3306 62.6523 67.3088 66.2593 69.4829L67.2918 67.77ZM59.3366 59.5763C57.3715 56.0978 56.3764 52.1043 56.3764 47.5682H54.3764C54.3764 52.407 55.441 56.7469 57.5952 60.5601L59.3366 59.5763ZM56.3764 47.5682C56.3764 43.2725 57.3345 39.3649 59.2398 35.8264L57.4789 34.8782C55.407 38.726 54.3764 42.9624 54.3764 47.5682H56.3764ZM59.2388 35.8284C61.1665 32.2678 63.8593 29.4389 67.3305 27.329L66.2917 25.6199C62.5186 27.9134 59.5769 31.003 57.48 34.8762L59.2388 35.8284ZM67.328 27.3305C70.7899 25.2398 74.8848 24.2095 79.6518 24.2783L79.6806 22.2785C74.5991 22.2052 70.1239 23.3056 66.2941 25.6184L67.328 27.3305ZM79.6662 30.0909C76.5076 30.0909 73.6352 30.8833 71.0759 32.4797L72.1344 34.1766C74.3573 32.79 76.8589 32.0909 79.6662 32.0909V30.0909ZM71.0782 32.4782C68.5615 34.0386 66.5619 36.1543 65.085 38.8077L66.8326 39.7804C68.1493 37.4148 69.9139 35.5533 72.132 34.178L71.0782 32.4782ZM65.0835 38.8105C63.6231 41.4543 62.8991 44.3805 62.8991 47.5682H64.8991C64.8991 44.6953 65.5483 42.1054 66.8341 39.7775L65.0835 38.8105ZM62.8991 47.5682C62.8991 50.7499 63.5966 53.6714 65.0054 56.3129L66.7701 55.3717C65.5274 53.0416 64.8991 50.4471 64.8991 47.5682H62.8991ZM65.0109 56.323C66.4398 58.9301 68.3909 61.0218 70.8574 62.5823L71.9267 60.8921C69.7531 59.517 68.0347 57.6788 66.7647 55.3617L65.0109 56.323ZM70.8675 62.5886C73.3821 64.138 76.23 64.9034 79.3821 64.9034V62.9034C76.5683 62.9034 74.0895 62.2247 71.9166 60.8859L70.8675 62.5886ZM79.3821 64.9034C81.7649 64.9034 84.0012 64.4385 86.0789 63.501L85.2563 61.678C83.4515 62.4924 81.4974 62.9034 79.3821 62.9034V64.9034ZM86.0881 63.4968C88.144 62.5441 89.9419 61.2497 91.4749 59.6161L90.0166 58.2475C88.6613 59.6916 87.0739 60.8357 85.2472 61.6822L86.0881 63.4968ZM91.4746 59.6165C93.0232 57.968 94.2368 56.1041 95.1118 54.0292L93.2689 53.2521C92.4867 55.1071 91.4039 56.7707 90.0169 58.2471L91.4746 59.6165ZM95.1134 54.0252C95.9928 51.9147 96.4332 49.7125 96.4332 47.4261H94.4332C94.4332 49.4485 94.0451 51.3892 93.2673 53.256L95.1134 54.0252ZM96.4332 47.4261C96.4332 44.4162 95.7038 41.5864 94.2489 38.9526L92.4982 39.9196C93.7895 42.2573 94.4332 44.7543 94.4332 47.4261H96.4332ZM94.2524 38.959C92.8224 36.3246 90.8356 34.1875 88.304 32.5582L87.2216 34.2401C89.4721 35.6884 91.2259 37.5759 92.4947 39.9132L94.2524 38.959ZM88.3078 32.5607C85.7662 30.9086 82.8752 30.0909 79.6662 30.0909V32.0909C82.5178 32.0909 85.0246 32.812 87.2178 34.2376L88.3078 32.5607ZM142.623 72.2486L141.728 71.8014L141.726 71.8052L142.623 72.2486ZM147.452 66.9219L147.985 67.7683L147.987 67.7667L147.452 66.9219ZM162.935 66.9219L162.391 67.7612L162.398 67.7655L162.935 66.9219ZM167.658 72.2486L166.756 72.6804L166.758 72.6841L167.658 72.2486ZM167.623 90.679L166.724 90.2394L166.722 90.2434L167.623 90.679ZM162.864 96.0057L163.401 96.8493L163.403 96.8478L162.864 96.0057ZM147.417 96.0057L146.877 96.8478L146.884 96.8521L147.417 96.0057ZM142.623 90.679L141.724 91.1185L141.726 91.1223L142.623 90.679ZM149.796 89.294L148.936 89.8051L148.939 89.8103L149.796 89.294ZM160.449 89.294L159.59 88.783L159.588 88.7865L160.449 89.294ZM160.52 73.6335L159.651 74.1271L159.653 74.1322L160.52 73.6335ZM149.831 73.6335L148.982 73.1056L148.98 73.1088L149.831 73.6335ZM106.401 30.6293L105.506 30.182L105.505 30.1859L106.401 30.6293ZM111.23 25.3026L111.763 26.149L111.766 26.1474L111.23 25.3026ZM126.713 25.3026L126.17 26.1419L126.177 26.1462L126.713 25.3026ZM131.436 30.6293L130.534 31.0611L130.536 31.0648L131.436 30.6293ZM131.401 49.0597L130.503 48.6201L130.501 48.6241L131.401 49.0597ZM126.642 54.3864L127.179 55.23L127.182 55.2285L126.642 54.3864ZM111.195 54.3864L110.656 55.2285L110.662 55.2328L111.195 54.3864ZM106.401 49.0597L105.503 49.4992L105.505 49.503L106.401 49.0597ZM113.574 47.6747L112.715 48.1858L112.718 48.1909L113.574 47.6747ZM124.228 47.6747L123.368 47.1636L123.366 47.1672L124.228 47.6747ZM124.299 32.0142L123.429 32.5078L123.432 32.5129L124.299 32.0142ZM113.61 32.0142L112.76 31.4863L112.758 31.4895L113.61 32.0142ZM107.466 97L106.642 96.4335L105.565 98H107.466V97ZM157.466 24.2727V23.2727H156.94L156.642 23.7062L157.466 24.2727ZM165.563 24.2727L166.387 24.8393L167.464 23.2727H165.563V24.2727ZM115.563 97V98H116.089L116.387 97.5665L115.563 97ZM141.989 83.3636V79.5284H139.989V83.3636H141.989ZM141.989 79.5284C141.989 77.0182 142.503 74.745 143.519 72.6919L141.726 71.8052C140.564 74.1555 139.989 76.7356 139.989 79.5284H141.989ZM143.517 72.6958C144.548 70.6342 146.032 68.9966 147.985 67.7683L146.919 66.0755C144.658 67.4986 142.923 69.4122 141.728 71.8014L143.517 72.6958ZM147.987 67.7667C149.928 66.5374 152.314 65.8977 155.194 65.8977V63.8977C152.012 63.8977 149.237 64.6074 146.917 66.0771L147.987 67.7667ZM155.194 65.8977C158.125 65.8977 160.505 66.5393 162.391 67.7612L163.479 66.0826C161.198 64.6056 158.418 63.8977 155.194 63.8977V65.8977ZM162.398 67.7655C164.324 68.991 165.772 70.6239 166.756 72.6804L168.56 71.8168C167.414 69.4225 165.713 67.5043 163.472 66.0782L162.398 67.7655ZM166.758 72.6841C167.752 74.7389 168.256 77.0148 168.256 79.5284H170.256C170.256 76.7389 169.695 74.1617 168.558 71.813L166.758 72.6841ZM168.256 79.5284V83.3636H170.256V79.5284H168.256ZM168.256 83.3636C168.256 85.8737 167.742 88.1604 166.724 90.2394L168.521 91.1185C169.681 88.7468 170.256 86.1566 170.256 83.3636H168.256ZM166.722 90.2434C165.739 92.2749 164.28 93.9113 162.325 95.1636L163.403 96.8478C165.662 95.4012 167.375 93.4865 168.523 91.1145L166.722 90.2434ZM162.327 95.162C160.437 96.3647 158.077 96.9943 155.194 96.9943V98.9943C158.371 98.9943 161.124 98.2982 163.401 96.8493L162.327 95.162ZM155.194 96.9943C152.26 96.9943 149.863 96.3634 147.949 95.1593L146.884 96.8521C149.184 98.2995 151.972 98.9943 155.194 98.9943V96.9943ZM147.956 95.1636C145.999 93.9102 144.526 92.2713 143.519 90.2356L141.726 91.1223C142.897 93.4901 144.62 95.4023 146.877 96.8478L147.956 95.1636ZM143.521 90.2394C142.503 88.1604 141.989 85.8737 141.989 83.3636H139.989C139.989 86.1566 140.564 88.7468 141.724 91.1185L143.521 90.2394ZM147.233 79.5284V83.3636H149.233V79.5284H147.233ZM147.233 83.3636C147.233 85.7303 147.795 87.8862 148.936 89.8051L150.655 88.783C149.713 87.198 149.233 85.4004 149.233 83.3636H147.233ZM148.939 89.8103C150.211 91.9207 152.394 92.8864 155.194 92.8864V90.8864C152.88 90.8864 151.464 90.1238 150.652 88.7778L148.939 89.8103ZM155.194 92.8864C157.935 92.8864 160.068 91.9113 161.311 89.8016L159.588 88.7865C158.794 90.1332 157.424 90.8864 155.194 90.8864V92.8864ZM161.309 89.8051C162.45 87.8862 163.012 85.7303 163.012 83.3636H161.012C161.012 85.4004 160.532 87.198 159.59 88.783L161.309 89.8051ZM163.012 83.3636V79.5284H161.012V83.3636H163.012ZM163.012 79.5284C163.012 77.1704 162.478 75.0302 161.387 73.1348L159.653 74.1322C160.552 75.6933 161.012 77.483 161.012 79.5284H163.012ZM161.39 73.1399C160.169 70.988 157.998 70.0057 155.194 70.0057V72.0057C157.503 72.0057 158.883 72.7752 159.651 74.1271L161.39 73.1399ZM155.194 70.0057C152.444 70.0057 150.293 70.9964 148.982 73.1056L150.681 74.1615C151.548 72.7669 152.971 72.0057 155.194 72.0057V70.0057ZM148.98 73.1088C147.809 75.008 147.233 77.1576 147.233 79.5284H149.233C149.233 77.4958 149.723 75.7155 150.683 74.1583L148.98 73.1088ZM105.767 41.7443V37.9091H103.767V41.7443H105.767ZM105.767 37.9091C105.767 35.3989 106.282 33.1257 107.297 31.0726L105.505 30.1859C104.342 32.5362 103.767 35.1163 103.767 37.9091H105.767ZM107.295 31.0765C108.326 29.0148 109.811 27.3773 111.763 26.1489L110.698 24.4562C108.436 25.8793 106.701 27.7929 105.507 30.182L107.295 31.0765ZM111.766 26.1474C113.706 24.9181 116.093 24.2784 118.972 24.2784V22.2784C115.791 22.2784 113.016 22.9881 110.695 24.4577L111.766 26.1474ZM118.972 24.2784C121.903 24.2784 124.283 24.92 126.17 26.1419L127.257 24.4632C124.977 22.9863 122.196 22.2784 118.972 22.2784V24.2784ZM126.177 26.1462C128.102 27.3716 129.55 29.0046 130.534 31.0611L132.338 30.1975C131.192 27.8032 129.491 25.885 127.25 24.4589L126.177 26.1462ZM130.536 31.0648C131.531 33.1196 132.034 35.3955 132.034 37.9091H134.034C134.034 35.1196 133.473 32.5424 132.337 30.1937L130.536 31.0648ZM132.034 37.9091V41.7443H134.034V37.9091H132.034ZM132.034 41.7443C132.034 44.2544 131.52 46.5411 130.503 48.6201L132.299 49.4992C133.46 47.1275 134.034 44.5373 134.034 41.7443H132.034ZM130.501 48.6241C129.518 50.6556 128.058 52.292 126.103 53.5443L127.182 55.2285C129.44 53.7818 131.153 51.8671 132.301 49.4952L130.501 48.6241ZM126.106 53.5427C124.216 54.7453 121.855 55.375 118.972 55.375V57.375C122.149 57.375 124.902 56.6789 127.179 55.23L126.106 53.5427ZM118.972 55.375C116.038 55.375 113.641 54.744 111.728 53.54L110.662 55.2328C112.963 56.6802 115.75 57.375 118.972 57.375V55.375ZM111.734 53.5443C109.777 52.2909 108.304 50.652 107.297 48.6163L105.505 49.503C106.676 51.8708 108.399 53.7829 110.656 55.2285L111.734 53.5443ZM107.299 48.6201C106.282 46.5411 105.767 44.2544 105.767 41.7443H103.767C103.767 44.5373 104.342 47.1275 105.503 49.4992L107.299 48.6201ZM111.012 37.9091V41.7443H113.012V37.9091H111.012ZM111.012 41.7443C111.012 44.111 111.574 46.2669 112.715 48.1858L114.434 47.1636C113.491 45.5787 113.012 43.7811 113.012 41.7443H111.012ZM112.718 48.1909C113.99 50.3013 116.172 51.267 118.972 51.267V49.267C116.658 49.267 115.242 48.5045 114.431 47.1585L112.718 48.1909ZM118.972 51.267C121.713 51.267 123.847 50.292 125.089 48.1823L123.366 47.1672C122.573 48.5139 121.202 49.267 118.972 49.267V51.267ZM125.087 48.1858C126.228 46.2669 126.79 44.111 126.79 41.7443H124.79C124.79 43.7811 124.31 45.5787 123.368 47.1636L125.087 48.1858ZM126.79 41.7443V37.9091H124.79V41.7443H126.79ZM126.79 37.9091C126.79 35.5511 126.256 33.4109 125.165 31.5155L123.432 32.5129C124.33 34.074 124.79 35.8637 124.79 37.9091H126.79ZM125.168 31.5206C123.947 29.3687 121.776 28.3864 118.972 28.3864V30.3864C121.282 30.3864 122.662 31.1559 123.429 32.5078L125.168 31.5206ZM118.972 28.3864C116.223 28.3864 114.072 29.377 112.76 31.4863L114.459 32.5421C115.326 31.1476 116.749 30.3864 118.972 30.3864V28.3864ZM112.758 31.4895C111.588 33.3887 111.012 35.5383 111.012 37.9091H113.012C113.012 35.8765 113.501 34.0961 114.461 32.5389L112.758 31.4895ZM108.29 97.5665L158.29 24.8393L156.642 23.7062L106.642 96.4335L108.29 97.5665ZM157.466 25.2727H165.563V23.2727H157.466V25.2727ZM164.739 23.7062L114.739 96.4335L116.387 97.5665L166.387 24.8393L164.739 23.7062ZM115.563 96H107.466V98H115.563V96Z" fill="black" fill-opacity="0.29" mask="url(#path-1-outside-1_281_9782)"/>
</g>
<defs>
<filter id="filter0_d_281_9782" x="3.4707" y="22.2754" width="170.785" height="84.7188" filterUnits="userSpaceOnUse" color-interpolation-filters="sRGB">
<feFlood flood-opacity="0" result="BackgroundImageFix"/>
<feColorMatrix in="SourceAlpha" type="matrix" values="0 0 0 0 0 0 0 0 0 0 0 0 0 0 0 0 0 0 127 0" result="hardAlpha"/>
<feOffset dy="4"/>
<feGaussianBlur stdDeviation="2"/>
<feComposite in2="hardAlpha" operator="out"/>
<feColorMatrix type="matrix" values="0 0 0 0 0 0 0 0 0 0 0 0 0 0 0 0 0 0 0.25 0"/>
<feBlend mode="normal" in2="BackgroundImageFix" result="effect1_dropShadow_281_9782"/>
<feBlend mode="normal" in="SourceGraphic" in2="effect1_dropShadow_281_9782" result="shape"/>
</filter>
</defs>
</svg>
