<svg width="332" height="86" viewBox="0 0 332 86" fill="none" xmlns="http://www.w3.org/2000/svg">
<g filter="url(#filter0_d_275_187)">
<path d="M0 37C0 16.5655 16.5655 0 37 0H332V24C332 51.6142 309.614 74 282 74H37C16.5655 74 0 57.4345 0 37Z" fill="white"/>
<path d="M0.5 37C0.5 16.8416 16.8416 0.5 37 0.5H331.5V24C331.5 51.3381 309.338 73.5 282 73.5H37C16.8416 73.5 0.5 57.1584 0.5 37Z" stroke="#2020B3"/>
</g>
<path d="M84.1094 41.9668C84.1094 41.5859 84.0508 41.2441 83.9336 40.9414C83.8262 40.6289 83.6211 40.3457 83.3184 40.0918C83.0156 39.8281 82.5908 39.5693 82.0439 39.3154C81.4971 39.0615 80.7891 38.7979 79.9199 38.5244C78.9531 38.2119 78.0352 37.8604 77.166 37.4697C76.3066 37.0791 75.5449 36.625 74.8809 36.1074C74.2266 35.5801 73.709 34.9697 73.3281 34.2764C72.957 33.583 72.7715 32.7773 72.7715 31.8594C72.7715 30.9707 72.9668 30.165 73.3574 29.4424C73.748 28.71 74.2949 28.085 74.998 27.5674C75.7012 27.04 76.5312 26.6348 77.4883 26.3516C78.4551 26.0684 79.5146 25.9268 80.667 25.9268C82.2393 25.9268 83.6113 26.21 84.7832 26.7764C85.9551 27.3428 86.8633 28.1191 87.5078 29.1055C88.1621 30.0918 88.4893 31.2197 88.4893 32.4893H84.124C84.124 31.8643 83.9922 31.3174 83.7285 30.8486C83.4746 30.3701 83.084 29.9941 82.5566 29.7207C82.0391 29.4473 81.3848 29.3105 80.5938 29.3105C79.832 29.3105 79.1973 29.4277 78.6895 29.6621C78.1816 29.8867 77.8008 30.1943 77.5469 30.585C77.293 30.9658 77.166 31.3955 77.166 31.874C77.166 32.2354 77.2539 32.5625 77.4297 32.8555C77.6152 33.1484 77.8887 33.4219 78.25 33.6758C78.6113 33.9297 79.0557 34.1689 79.583 34.3936C80.1104 34.6182 80.7207 34.8379 81.4141 35.0527C82.5762 35.4043 83.5967 35.7998 84.4756 36.2393C85.3643 36.6787 86.1064 37.1719 86.7021 37.7188C87.2979 38.2656 87.7471 38.8857 88.0498 39.5791C88.3525 40.2725 88.5039 41.0586 88.5039 41.9375C88.5039 42.8652 88.3232 43.6953 87.9619 44.4277C87.6006 45.1602 87.0781 45.7803 86.3945 46.2881C85.7109 46.7959 84.8955 47.1816 83.9482 47.4453C83.001 47.709 81.9414 47.8408 80.7695 47.8408C79.7148 47.8408 78.6748 47.7041 77.6494 47.4307C76.624 47.1475 75.6914 46.7227 74.8516 46.1562C74.0215 45.5898 73.3574 44.8672 72.8594 43.9883C72.3613 43.1094 72.1123 42.0693 72.1123 40.8682H76.5215C76.5215 41.5322 76.624 42.0938 76.8291 42.5527C77.0342 43.0117 77.3223 43.3828 77.6934 43.666C78.0742 43.9492 78.5234 44.1543 79.041 44.2812C79.5684 44.4082 80.1445 44.4717 80.7695 44.4717C81.5312 44.4717 82.1562 44.3643 82.6445 44.1494C83.1426 43.9346 83.5088 43.6367 83.7432 43.2559C83.9873 42.875 84.1094 42.4453 84.1094 41.9668ZM107.812 36.3857V37.3965C107.812 39.0176 107.592 40.4727 107.153 41.7617C106.713 43.0508 106.093 44.1494 105.292 45.0576C104.491 45.9561 103.534 46.6445 102.421 47.123C101.318 47.6016 100.092 47.8408 98.7443 47.8408C97.4064 47.8408 96.1809 47.6016 95.0676 47.123C93.9641 46.6445 93.007 45.9561 92.1965 45.0576C91.3859 44.1494 90.7561 43.0508 90.3068 41.7617C89.8674 40.4727 89.6477 39.0176 89.6477 37.3965V36.3857C89.6477 34.7549 89.8674 33.2998 90.3068 32.0205C90.7463 30.7314 91.3664 29.6328 92.1672 28.7246C92.9777 27.8164 93.9348 27.123 95.0383 26.6445C96.1516 26.166 97.3772 25.9268 98.715 25.9268C100.063 25.9268 101.288 26.166 102.392 26.6445C103.505 27.123 104.462 27.8164 105.263 28.7246C106.073 29.6328 106.698 30.7314 107.138 32.0205C107.587 33.2998 107.812 34.7549 107.812 36.3857ZM103.373 37.3965V36.3564C103.373 35.2236 103.271 34.2275 103.066 33.3682C102.861 32.5088 102.558 31.7861 102.157 31.2002C101.757 30.6143 101.269 30.1748 100.693 29.8818C100.116 29.5791 99.4572 29.4277 98.715 29.4277C97.9729 29.4277 97.3137 29.5791 96.7375 29.8818C96.1711 30.1748 95.6877 30.6143 95.2873 31.2002C94.8967 31.7861 94.5988 32.5088 94.3938 33.3682C94.1887 34.2275 94.0861 35.2236 94.0861 36.3564V37.3965C94.0861 38.5195 94.1887 39.5156 94.3938 40.3848C94.5988 41.2441 94.9016 41.9717 95.302 42.5674C95.7023 43.1533 96.1906 43.5977 96.7668 43.9004C97.343 44.2031 98.0022 44.3545 98.7443 44.3545C99.4865 44.3545 100.146 44.2031 100.722 43.9004C101.298 43.5977 101.781 43.1533 102.172 42.5674C102.563 41.9717 102.861 41.2441 103.066 40.3848C103.271 39.5156 103.373 38.5195 103.373 37.3965ZM112.061 26.2197L116.514 35.9463L120.967 26.2197H125.757L118.741 39.7842V47.5479H114.287V39.7842L107.256 26.2197H112.061ZM147.088 44.1201V47.5479H135.735V44.1201H147.088ZM137.171 26.2197V47.5479H132.776V26.2197H137.171ZM145.608 34.9062V38.2461H135.735V34.9062H145.608ZM147.073 26.2197V29.6621H135.735V26.2197H147.073ZM150.458 26.2197H154.179L159.657 41.8789L165.136 26.2197H168.856L161.151 47.5479H158.163L150.458 26.2197ZM148.451 26.2197H152.157L152.831 41.4834V47.5479H148.451V26.2197ZM167.157 26.2197H170.878V47.5479H166.483V41.4834L167.157 26.2197ZM181.836 39.9453H176.402V36.5176H181.836C182.676 36.5176 183.36 36.3809 183.887 36.1074C184.414 35.8242 184.8 35.4336 185.044 34.9355C185.288 34.4375 185.41 33.876 185.41 33.251C185.41 32.6162 185.288 32.0254 185.044 31.4785C184.8 30.9316 184.414 30.4922 183.887 30.1602C183.36 29.8281 182.676 29.6621 181.836 29.6621H177.925V47.5479H173.53V26.2197H181.836C183.506 26.2197 184.937 26.5225 186.128 27.1279C187.329 27.7236 188.247 28.5488 188.882 29.6035C189.517 30.6582 189.834 31.8643 189.834 33.2217C189.834 34.5986 189.517 35.79 188.882 36.7959C188.247 37.8018 187.329 38.5781 186.128 39.125C184.937 39.6719 183.506 39.9453 181.836 39.9453ZM191.666 26.2197H199.621C201.251 26.2197 202.653 26.4639 203.825 26.9521C205.006 27.4404 205.914 28.1631 206.549 29.1201C207.184 30.0771 207.501 31.2539 207.501 32.6504C207.501 33.793 207.306 34.7744 206.915 35.5947C206.535 36.4053 205.993 37.084 205.289 37.6309C204.596 38.168 203.781 38.5977 202.843 38.9199L201.452 39.6523H194.538L194.508 36.2246H199.65C200.421 36.2246 201.061 36.0879 201.569 35.8145C202.077 35.541 202.457 35.1602 202.711 34.6719C202.975 34.1836 203.107 33.6172 203.107 32.9727C203.107 32.2891 202.98 31.6982 202.726 31.2002C202.472 30.7021 202.086 30.3213 201.569 30.0576C201.051 29.7939 200.402 29.6621 199.621 29.6621H196.061V47.5479H191.666V26.2197ZM203.59 47.5479L198.727 38.041L203.371 38.0117L208.292 47.3428V47.5479H203.59ZM223.997 44.1201V47.5479H212.644V44.1201H223.997ZM214.08 26.2197V47.5479H209.685V26.2197H214.08ZM222.517 34.9062V38.2461H212.644V34.9062H222.517ZM223.982 26.2197V29.6621H212.644V26.2197H223.982ZM236.464 41.9668C236.464 41.5859 236.405 41.2441 236.288 40.9414C236.18 40.6289 235.975 40.3457 235.673 40.0918C235.37 39.8281 234.945 39.5693 234.398 39.3154C233.851 39.0615 233.143 38.7979 232.274 38.5244C231.307 38.2119 230.389 37.8604 229.52 37.4697C228.661 37.0791 227.899 36.625 227.235 36.1074C226.581 35.5801 226.063 34.9697 225.682 34.2764C225.311 33.583 225.126 32.7773 225.126 31.8594C225.126 30.9707 225.321 30.165 225.712 29.4424C226.102 28.71 226.649 28.085 227.352 27.5674C228.055 27.04 228.886 26.6348 229.843 26.3516C230.809 26.0684 231.869 25.9268 233.021 25.9268C234.594 25.9268 235.966 26.21 237.137 26.7764C238.309 27.3428 239.218 28.1191 239.862 29.1055C240.516 30.0918 240.844 31.2197 240.844 32.4893H236.478C236.478 31.8643 236.346 31.3174 236.083 30.8486C235.829 30.3701 235.438 29.9941 234.911 29.7207C234.393 29.4473 233.739 29.3105 232.948 29.3105C232.186 29.3105 231.552 29.4277 231.044 29.6621C230.536 29.8867 230.155 30.1943 229.901 30.585C229.647 30.9658 229.52 31.3955 229.52 31.874C229.52 32.2354 229.608 32.5625 229.784 32.8555C229.97 33.1484 230.243 33.4219 230.604 33.6758C230.966 33.9297 231.41 34.1689 231.937 34.3936C232.465 34.6182 233.075 34.8379 233.768 35.0527C234.93 35.4043 235.951 35.7998 236.83 36.2393C237.719 36.6787 238.461 37.1719 239.056 37.7188C239.652 38.2656 240.101 38.8857 240.404 39.5791C240.707 40.2725 240.858 41.0586 240.858 41.9375C240.858 42.8652 240.678 43.6953 240.316 44.4277C239.955 45.1602 239.432 45.7803 238.749 46.2881C238.065 46.7959 237.25 47.1816 236.303 47.4453C235.355 47.709 234.296 47.8408 233.124 47.8408C232.069 47.8408 231.029 47.7041 230.004 47.4307C228.978 47.1475 228.046 46.7227 227.206 46.1562C226.376 45.5898 225.712 44.8672 225.214 43.9883C224.716 43.1094 224.467 42.0693 224.467 40.8682H228.876C228.876 41.5322 228.978 42.0938 229.183 42.5527C229.388 43.0117 229.677 43.3828 230.048 43.666C230.429 43.9492 230.878 44.1543 231.395 44.2812C231.923 44.4082 232.499 44.4717 233.124 44.4717C233.886 44.4717 234.511 44.3643 234.999 44.1494C235.497 43.9346 235.863 43.6367 236.097 43.2559C236.342 42.875 236.464 42.4453 236.464 41.9668ZM251.318 29.8672L245.518 47.5479H240.845L248.77 26.2197H251.743L251.318 29.8672ZM256.138 47.5479L250.322 29.8672L249.854 26.2197H252.856L260.825 47.5479H256.138ZM255.874 39.6084V43.0508H244.609V39.6084H255.874Z" fill="#2020B3"/>
<defs>
<filter id="filter0_d_275_187" x="0" y="0" width="332" height="86" filterUnits="userSpaceOnUse" color-interpolation-filters="sRGB">
<feFlood flood-opacity="0" result="BackgroundImageFix"/>
<feColorMatrix in="SourceAlpha" type="matrix" values="0 0 0 0 0 0 0 0 0 0 0 0 0 0 0 0 0 0 127 0" result="hardAlpha"/>
<feMorphology radius="2" operator="erode" in="SourceAlpha" result="effect1_dropShadow_275_187"/>
<feOffset dy="14"/>
<feComposite in2="hardAlpha" operator="out"/>
<feColorMatrix type="matrix" values="0 0 0 0 0.12549 0 0 0 0 0.12549 0 0 0 0 0.701961 0 0 0 1 0"/>
<feBlend mode="normal" in2="BackgroundImageFix" result="effect1_dropShadow_275_187"/>
<feBlend mode="normal" in="SourceGraphic" in2="effect1_dropShadow_275_187" result="shape"/>
</filter>
</defs>
</svg>
