<svg width="332" height="86" viewBox="0 0 332 86" fill="none" xmlns="http://www.w3.org/2000/svg">
<g filter="url(#filter0_d_275_184)">
<path d="M0 0H295C315.435 0 332 16.5655 332 37C332 57.4345 315.435 74 295 74H50C22.3858 74 0 51.6142 0 24V0Z" fill="white"/>
<path d="M0.5 0.5H295C315.158 0.5 331.5 16.8416 331.5 37C331.5 57.1584 315.158 73.5 295 73.5H50C22.6619 73.5 0.5 51.3381 0.5 24V0.5Z" stroke="#75B300"/>
</g>
<path d="M88.167 41.9668C88.167 41.5859 88.1084 41.2441 87.9912 40.9414C87.8838 40.6289 87.6787 40.3457 87.376 40.0918C87.0732 39.8281 86.6484 39.5693 86.1016 39.3154C85.5547 39.0615 84.8467 38.7979 83.9775 38.5244C83.0107 38.2119 82.0928 37.8604 81.2236 37.4697C80.3643 37.0791 79.6025 36.625 78.9385 36.1074C78.2842 35.5801 77.7666 34.9697 77.3857 34.2764C77.0146 33.583 76.8291 32.7773 76.8291 31.8594C76.8291 30.9707 77.0244 30.165 77.415 29.4424C77.8057 28.71 78.3525 28.085 79.0557 27.5674C79.7588 27.04 80.5889 26.6348 81.5459 26.3516C82.5127 26.0684 83.5723 25.9268 84.7246 25.9268C86.2969 25.9268 87.6689 26.21 88.8408 26.7764C90.0127 27.3428 90.9209 28.1191 91.5654 29.1055C92.2197 30.0918 92.5469 31.2197 92.5469 32.4893H88.1816C88.1816 31.8643 88.0498 31.3174 87.7861 30.8486C87.5322 30.3701 87.1416 29.9941 86.6143 29.7207C86.0967 29.4473 85.4424 29.3105 84.6514 29.3105C83.8896 29.3105 83.2549 29.4277 82.7471 29.6621C82.2393 29.8867 81.8584 30.1943 81.6045 30.585C81.3506 30.9658 81.2236 31.3955 81.2236 31.874C81.2236 32.2354 81.3115 32.5625 81.4873 32.8555C81.6729 33.1484 81.9463 33.4219 82.3076 33.6758C82.6689 33.9297 83.1133 34.1689 83.6406 34.3936C84.168 34.6182 84.7783 34.8379 85.4717 35.0527C86.6338 35.4043 87.6543 35.7998 88.5332 36.2393C89.4219 36.6787 90.1641 37.1719 90.7598 37.7188C91.3555 38.2656 91.8047 38.8857 92.1074 39.5791C92.4102 40.2725 92.5615 41.0586 92.5615 41.9375C92.5615 42.8652 92.3809 43.6953 92.0195 44.4277C91.6582 45.1602 91.1357 45.7803 90.4521 46.2881C89.7686 46.7959 88.9531 47.1816 88.0059 47.4453C87.0586 47.709 85.999 47.8408 84.8271 47.8408C83.7725 47.8408 82.7324 47.7041 81.707 47.4307C80.6816 47.1475 79.749 46.7227 78.9092 46.1562C78.0791 45.5898 77.415 44.8672 76.917 43.9883C76.4189 43.1094 76.1699 42.0693 76.1699 40.8682H80.5791C80.5791 41.5322 80.6816 42.0938 80.8867 42.5527C81.0918 43.0117 81.3799 43.3828 81.751 43.666C82.1318 43.9492 82.5811 44.1543 83.0986 44.2812C83.626 44.4082 84.2021 44.4717 84.8271 44.4717C85.5889 44.4717 86.2139 44.3643 86.7021 44.1494C87.2002 43.9346 87.5664 43.6367 87.8008 43.2559C88.0449 42.875 88.167 42.4453 88.167 41.9668ZM111.869 36.3857V37.3965C111.869 39.0176 111.65 40.4727 111.21 41.7617C110.771 43.0508 110.151 44.1494 109.35 45.0576C108.549 45.9561 107.592 46.6445 106.479 47.123C105.375 47.6016 104.15 47.8408 102.802 47.8408C101.464 47.8408 100.238 47.6016 99.1252 47.123C98.0217 46.6445 97.0647 45.9561 96.2541 45.0576C95.4436 44.1494 94.8137 43.0508 94.3645 41.7617C93.925 40.4727 93.7053 39.0176 93.7053 37.3965V36.3857C93.7053 34.7549 93.925 33.2998 94.3645 32.0205C94.8039 30.7314 95.424 29.6328 96.2248 28.7246C97.0354 27.8164 97.9924 27.123 99.0959 26.6445C100.209 26.166 101.435 25.9268 102.773 25.9268C104.12 25.9268 105.346 26.166 106.449 26.6445C107.563 27.123 108.52 27.8164 109.321 28.7246C110.131 29.6328 110.756 30.7314 111.196 32.0205C111.645 33.2998 111.869 34.7549 111.869 36.3857ZM107.431 37.3965V36.3564C107.431 35.2236 107.328 34.2275 107.123 33.3682C106.918 32.5088 106.615 31.7861 106.215 31.2002C105.815 30.6143 105.326 30.1748 104.75 29.8818C104.174 29.5791 103.515 29.4277 102.773 29.4277C102.03 29.4277 101.371 29.5791 100.795 29.8818C100.229 30.1748 99.7453 30.6143 99.3449 31.2002C98.9543 31.7861 98.6564 32.5088 98.4514 33.3682C98.2463 34.2275 98.1438 35.2236 98.1438 36.3564V37.3965C98.1438 38.5195 98.2463 39.5156 98.4514 40.3848C98.6564 41.2441 98.9592 41.9717 99.3596 42.5674C99.76 43.1533 100.248 43.5977 100.824 43.9004C101.401 44.2031 102.06 44.3545 102.802 44.3545C103.544 44.3545 104.203 44.2031 104.779 43.9004C105.356 43.5977 105.839 43.1533 106.23 42.5674C106.62 41.9717 106.918 41.2441 107.123 40.3848C107.328 39.5156 107.431 38.5195 107.431 37.3965ZM116.119 26.2197L120.572 35.9463L125.025 26.2197H129.815L122.798 39.7842V47.5479H118.345V39.7842L111.314 26.2197H116.119ZM145.579 26.2197V47.5479H141.199V26.2197H145.579ZM152.141 26.2197V29.6621H134.739V26.2197H152.141ZM160.536 29.8672L154.735 47.5479H150.062L157.987 26.2197H160.961L160.536 29.8672ZM165.355 47.5479L159.54 29.8672L159.071 26.2197H162.074L170.043 47.5479H165.355ZM165.092 39.6084V43.0508H153.827V39.6084H165.092ZM184.531 44.1201V47.5479H173.794V44.1201H184.531ZM175.215 26.2197V47.5479H170.821V26.2197H175.215ZM200.163 44.1201V47.5479H188.81V44.1201H200.163ZM190.246 26.2197V47.5479H185.851V26.2197H190.246ZM198.683 34.9062V38.2461H188.81V34.9062H198.683ZM200.148 26.2197V29.6621H188.81V26.2197H200.148ZM218.884 26.2197V47.5479H214.49L205.921 33.251V47.5479H201.526V26.2197H205.921L214.504 40.5312V26.2197H218.884ZM230.604 26.2197V47.5479H226.224V26.2197H230.604ZM237.167 26.2197V29.6621H219.764V26.2197H237.167ZM255.581 36.3857V37.3965C255.581 39.0176 255.361 40.4727 254.922 41.7617C254.482 43.0508 253.862 44.1494 253.062 45.0576C252.261 45.9561 251.304 46.6445 250.19 47.123C249.087 47.6016 247.861 47.8408 246.514 47.8408C245.176 47.8408 243.95 47.6016 242.837 47.123C241.733 46.6445 240.776 45.9561 239.966 45.0576C239.155 44.1494 238.525 43.0508 238.076 41.7617C237.637 40.4727 237.417 39.0176 237.417 37.3965V36.3857C237.417 34.7549 237.637 33.2998 238.076 32.0205C238.516 30.7314 239.136 29.6328 239.937 28.7246C240.747 27.8164 241.704 27.123 242.808 26.6445C243.921 26.166 245.146 25.9268 246.484 25.9268C247.832 25.9268 249.058 26.166 250.161 26.6445C251.274 27.123 252.231 27.8164 253.032 28.7246C253.843 29.6328 254.468 30.7314 254.907 32.0205C255.356 33.2998 255.581 34.7549 255.581 36.3857ZM251.143 37.3965V36.3564C251.143 35.2236 251.04 34.2275 250.835 33.3682C250.63 32.5088 250.327 31.7861 249.927 31.2002C249.526 30.6143 249.038 30.1748 248.462 29.8818C247.886 29.5791 247.227 29.4277 246.484 29.4277C245.742 29.4277 245.083 29.5791 244.507 29.8818C243.94 30.1748 243.457 30.6143 243.057 31.2002C242.666 31.7861 242.368 32.5088 242.163 33.3682C241.958 34.2275 241.855 35.2236 241.855 36.3564V37.3965C241.855 38.5195 241.958 39.5156 242.163 40.3848C242.368 41.2441 242.671 41.9717 243.071 42.5674C243.472 43.1533 243.96 43.5977 244.536 43.9004C245.112 44.2031 245.771 44.3545 246.514 44.3545C247.256 44.3545 247.915 44.2031 248.491 43.9004C249.067 43.5977 249.551 43.1533 249.941 42.5674C250.332 41.9717 250.63 41.2441 250.835 40.3848C251.04 39.5156 251.143 38.5195 251.143 37.3965Z" fill="#75B300"/>
<defs>
<filter id="filter0_d_275_184" x="0" y="0" width="332" height="86" filterUnits="userSpaceOnUse" color-interpolation-filters="sRGB">
<feFlood flood-opacity="0" result="BackgroundImageFix"/>
<feColorMatrix in="SourceAlpha" type="matrix" values="0 0 0 0 0 0 0 0 0 0 0 0 0 0 0 0 0 0 127 0" result="hardAlpha"/>
<feMorphology radius="2" operator="erode" in="SourceAlpha" result="effect1_dropShadow_275_184"/>
<feOffset dy="14"/>
<feComposite in2="hardAlpha" operator="out"/>
<feColorMatrix type="matrix" values="0 0 0 0 0.458824 0 0 0 0 0.701961 0 0 0 0 0 0 0 0 1 0"/>
<feBlend mode="normal" in2="BackgroundImageFix" result="effect1_dropShadow_275_184"/>
<feBlend mode="normal" in="SourceGraphic" in2="effect1_dropShadow_275_184" result="shape"/>
</filter>
</defs>
</svg>
